<svg version="1.1" xmlns="http://www.w3.org/2000/svg" xmlns:xlink="http://www.w3.org/1999/xlink" width="98.59463" height="89.12212" viewBox="0,0,98.59463,89.12212"><g transform="translate(-190.72518,-133.1191)"><g data-paper-data="{&quot;isPaintingLayer&quot;:true}" fill-rule="nonzero" stroke-linejoin="miter" stroke-miterlimit="10" stroke-dasharray="" stroke-dashoffset="0" style="mix-blend-mode: normal"><path d="M272.30864,213.5181h-64v-63" fill="none" stroke="#25e3fe" stroke-width="2" stroke-linecap="round"/><text transform="translate(278.07464,216.82689) scale(0.83298,0.83298)" font-size="22" xml:space="preserve" fill="#25e3fe" fill-rule="nonzero" stroke="none" stroke-width="1" stroke-linecap="butt" stroke-linejoin="miter" stroke-miterlimit="10" stroke-dasharray="" stroke-dashoffset="0" font-family="Sans Serif" font-weight="400" text-anchor="start" style="mix-blend-mode: normal"><tspan x="0" dy="0">x</tspan></text><text transform="translate(191.97464,153.52699) scale(0.83298,0.83298)" font-size="22" xml:space="preserve" fill="#25e3fe" fill-rule="nonzero" stroke="none" stroke-width="1" stroke-linecap="butt" stroke-linejoin="miter" stroke-miterlimit="10" stroke-dasharray="" stroke-dashoffset="0" font-family="Sans Serif" font-weight="400" text-anchor="start" style="mix-blend-mode: normal"><tspan x="0" dy="0">y</tspan></text><path d="M244.80864,168.5181c0.966,0 1.841,0.392 2.474,1.026c0.634,0.633 1.026,1.508 1.026,2.474c0,0.966 -0.392,1.841 -1.026,2.474c-0.633,0.634 -1.508,1.026 -2.474,1.026c-0.966,0 -1.841,-0.392 -2.474,-1.026c-0.634,-0.633 -1.026,-1.508 -1.026,-2.474c0,-0.966 0.392,-1.841 1.026,-2.474c0.633,-0.634 1.508,-1.026 2.474,-1.026z" fill="#25e3fe" stroke="none" stroke-width="1" stroke-linecap="butt"/></g></g></svg>
